<mxfile host="Electron" modified="2024-05-29T20:11:34.523Z" agent="Mozilla/5.0 (Macintosh; Intel Mac OS X 10_15_7) AppleWebKit/537.36 (KHTML, like Gecko) draw.io/24.4.8 Chrome/124.0.6367.207 Electron/30.0.6 Safari/537.36" etag="DZUDTSAPlyTA36E5THZG" version="24.4.8" type="device">
  <diagram id="C5RBs43oDa-KdzZeNtuy" name="Page-1">
    <mxGraphModel dx="954" dy="593" grid="1" gridSize="10" guides="1" tooltips="1" connect="1" arrows="1" fold="1" page="1" pageScale="1" pageWidth="827" pageHeight="1169" math="0" shadow="0">
      <root>
        <mxCell id="WIyWlLk6GJQsqaUBKTNV-0" />
        <mxCell id="WIyWlLk6GJQsqaUBKTNV-1" parent="WIyWlLk6GJQsqaUBKTNV-0" />
        <mxCell id="3fx-p6HcElgktByNlLMN-0" value="&amp;lt;Fields&amp;gt;&lt;div&gt;Username, Password&lt;/div&gt;&lt;div&gt;&lt;br&gt;&lt;/div&gt;&lt;div&gt;&amp;lt;Buttons&amp;gt;&lt;/div&gt;&lt;div&gt;Login, Forgot password&lt;/div&gt;" style="whiteSpace=wrap;html=1;aspect=fixed;" vertex="1" parent="WIyWlLk6GJQsqaUBKTNV-1">
          <mxGeometry x="320" y="120" width="180" height="180" as="geometry" />
        </mxCell>
        <mxCell id="3fx-p6HcElgktByNlLMN-1" value="Login Screen" style="text;html=1;align=center;verticalAlign=middle;whiteSpace=wrap;rounded=0;" vertex="1" parent="WIyWlLk6GJQsqaUBKTNV-1">
          <mxGeometry x="370" y="90" width="80" height="30" as="geometry" />
        </mxCell>
        <mxCell id="3fx-p6HcElgktByNlLMN-4" value="&amp;lt;Navigation&amp;gt;&lt;div&gt;Password List,&lt;/div&gt;&lt;div&gt;Add/Edit Password,&lt;/div&gt;&lt;div&gt;Settings,&lt;/div&gt;&lt;div&gt;Password Strength Analysis,&lt;/div&gt;&lt;div&gt;Security Alerts&lt;/div&gt;" style="whiteSpace=wrap;html=1;aspect=fixed;" vertex="1" parent="WIyWlLk6GJQsqaUBKTNV-1">
          <mxGeometry x="319" y="400" width="190" height="190" as="geometry" />
        </mxCell>
        <mxCell id="3fx-p6HcElgktByNlLMN-5" value="&lt;div style=&quot;text-align: center;&quot;&gt;&lt;span style=&quot;background-color: initial;&quot;&gt;DashBoard&lt;/span&gt;&lt;/div&gt;" style="text;whiteSpace=wrap;html=1;" vertex="1" parent="WIyWlLk6GJQsqaUBKTNV-1">
          <mxGeometry x="379" y="380" width="130" height="40" as="geometry" />
        </mxCell>
        <mxCell id="3fx-p6HcElgktByNlLMN-8" value="&amp;lt;Options&amp;gt;&lt;div&gt;User Preferences,&lt;/div&gt;&lt;div&gt;Security Settings&lt;/div&gt;" style="rounded=1;whiteSpace=wrap;html=1;absoluteArcSize=1;arcSize=14;strokeWidth=2;" vertex="1" parent="WIyWlLk6GJQsqaUBKTNV-1">
          <mxGeometry x="560" y="600" width="160" height="190" as="geometry" />
        </mxCell>
        <mxCell id="3fx-p6HcElgktByNlLMN-9" value="&lt;div style=&quot;text-align: center;&quot;&gt;&lt;span style=&quot;background-color: initial;&quot;&gt;After Login&lt;/span&gt;&lt;/div&gt;" style="text;whiteSpace=wrap;html=1;" vertex="1" parent="WIyWlLk6GJQsqaUBKTNV-1">
          <mxGeometry x="379" y="330" width="100" height="20" as="geometry" />
        </mxCell>
        <mxCell id="3fx-p6HcElgktByNlLMN-10" value="" style="endArrow=none;html=1;rounded=0;entryX=0.5;entryY=1;entryDx=0;entryDy=0;" edge="1" parent="WIyWlLk6GJQsqaUBKTNV-1" target="3fx-p6HcElgktByNlLMN-0">
          <mxGeometry width="50" height="50" relative="1" as="geometry">
            <mxPoint x="410" y="330" as="sourcePoint" />
            <mxPoint x="330" y="350" as="targetPoint" />
          </mxGeometry>
        </mxCell>
        <mxCell id="3fx-p6HcElgktByNlLMN-12" value="" style="endArrow=classic;html=1;rounded=0;entryX=0.25;entryY=0;entryDx=0;entryDy=0;exitX=0.32;exitY=1.15;exitDx=0;exitDy=0;exitPerimeter=0;" edge="1" parent="WIyWlLk6GJQsqaUBKTNV-1" source="3fx-p6HcElgktByNlLMN-9" target="3fx-p6HcElgktByNlLMN-5">
          <mxGeometry width="50" height="50" relative="1" as="geometry">
            <mxPoint x="480" y="320" as="sourcePoint" />
            <mxPoint x="330" y="350" as="targetPoint" />
          </mxGeometry>
        </mxCell>
        <mxCell id="3fx-p6HcElgktByNlLMN-13" value="&amp;lt;Fields&amp;gt;&lt;div&gt;Website,&lt;/div&gt;&lt;div&gt;UserName,&lt;/div&gt;&lt;div&gt;Password,&lt;/div&gt;&lt;div&gt;Category&lt;/div&gt;&lt;div&gt;&lt;br&gt;&lt;/div&gt;&lt;div&gt;&amp;lt;Buttons&amp;gt;&lt;/div&gt;&lt;div&gt;Save&lt;/div&gt;" style="rounded=1;whiteSpace=wrap;html=1;absoluteArcSize=1;arcSize=14;strokeWidth=2;" vertex="1" parent="WIyWlLk6GJQsqaUBKTNV-1">
          <mxGeometry x="280" y="800" width="160" height="190" as="geometry" />
        </mxCell>
        <mxCell id="3fx-p6HcElgktByNlLMN-14" value="&amp;lt;Viewing&amp;gt;&lt;div&gt;Table/List w/ Pass&lt;/div&gt;&lt;div&gt;&amp;lt;Buttons&amp;gt;&lt;/div&gt;&lt;div&gt;Add New Pass,&lt;/div&gt;&lt;div&gt;Edit,&lt;/div&gt;&lt;div&gt;Delete,&lt;/div&gt;&lt;div&gt;Quick Copy,&amp;nbsp;&lt;/div&gt;&lt;div&gt;One-Click Login&lt;/div&gt;" style="rounded=1;whiteSpace=wrap;html=1;absoluteArcSize=1;arcSize=14;strokeWidth=2;" vertex="1" parent="WIyWlLk6GJQsqaUBKTNV-1">
          <mxGeometry x="70" y="600" width="160" height="190" as="geometry" />
        </mxCell>
        <mxCell id="3fx-p6HcElgktByNlLMN-15" value="Add/ Edit Password" style="text;html=1;align=center;verticalAlign=middle;whiteSpace=wrap;rounded=0;" vertex="1" parent="WIyWlLk6GJQsqaUBKTNV-1">
          <mxGeometry x="317" y="760" width="100" height="30" as="geometry" />
        </mxCell>
        <mxCell id="3fx-p6HcElgktByNlLMN-17" value="Password List" style="text;html=1;align=center;verticalAlign=middle;whiteSpace=wrap;rounded=0;" vertex="1" parent="WIyWlLk6GJQsqaUBKTNV-1">
          <mxGeometry x="110" y="570" width="80" height="30" as="geometry" />
        </mxCell>
        <mxCell id="3fx-p6HcElgktByNlLMN-19" value="" style="endArrow=none;html=1;rounded=0;exitX=-0.011;exitY=0.468;exitDx=0;exitDy=0;exitPerimeter=0;" edge="1" parent="WIyWlLk6GJQsqaUBKTNV-1" source="3fx-p6HcElgktByNlLMN-4">
          <mxGeometry width="50" height="50" relative="1" as="geometry">
            <mxPoint x="310" y="490" as="sourcePoint" />
            <mxPoint x="190" y="490" as="targetPoint" />
          </mxGeometry>
        </mxCell>
        <mxCell id="3fx-p6HcElgktByNlLMN-20" value="&lt;div style=&quot;text-align: center;&quot;&gt;Click Password List&lt;/div&gt;" style="text;whiteSpace=wrap;html=1;" vertex="1" parent="WIyWlLk6GJQsqaUBKTNV-1">
          <mxGeometry x="80" y="475" width="130" height="25" as="geometry" />
        </mxCell>
        <mxCell id="3fx-p6HcElgktByNlLMN-22" value="" style="endArrow=classic;html=1;rounded=0;exitX=0.5;exitY=1;exitDx=0;exitDy=0;" edge="1" parent="WIyWlLk6GJQsqaUBKTNV-1" source="3fx-p6HcElgktByNlLMN-20">
          <mxGeometry width="50" height="50" relative="1" as="geometry">
            <mxPoint x="421" y="363" as="sourcePoint" />
            <mxPoint x="145" y="560" as="targetPoint" />
          </mxGeometry>
        </mxCell>
        <mxCell id="3fx-p6HcElgktByNlLMN-24" value="" style="endArrow=none;html=1;rounded=0;exitX=0.385;exitY=0.28;exitDx=0;exitDy=0;exitPerimeter=0;" edge="1" parent="WIyWlLk6GJQsqaUBKTNV-1">
          <mxGeometry width="50" height="50" relative="1" as="geometry">
            <mxPoint x="356.04999999999995" y="700" as="sourcePoint" />
            <mxPoint x="356" y="590" as="targetPoint" />
          </mxGeometry>
        </mxCell>
        <mxCell id="3fx-p6HcElgktByNlLMN-25" value="&lt;div style=&quot;text-align: center;&quot;&gt;Click Add/Edit Pass&lt;/div&gt;" style="text;whiteSpace=wrap;html=1;" vertex="1" parent="WIyWlLk6GJQsqaUBKTNV-1">
          <mxGeometry x="302" y="693" width="130" height="25" as="geometry" />
        </mxCell>
        <mxCell id="3fx-p6HcElgktByNlLMN-29" value="" style="endArrow=none;html=1;rounded=0;entryX=1;entryY=0.553;entryDx=0;entryDy=0;entryPerimeter=0;exitX=0;exitY=0.5;exitDx=0;exitDy=0;" edge="1" parent="WIyWlLk6GJQsqaUBKTNV-1" source="3fx-p6HcElgktByNlLMN-25" target="3fx-p6HcElgktByNlLMN-14">
          <mxGeometry width="50" height="50" relative="1" as="geometry">
            <mxPoint x="409" y="700" as="sourcePoint" />
            <mxPoint x="409" y="602" as="targetPoint" />
          </mxGeometry>
        </mxCell>
        <mxCell id="3fx-p6HcElgktByNlLMN-30" value="" style="endArrow=classic;html=1;rounded=0;entryX=0.38;entryY=-0.05;entryDx=0;entryDy=0;exitX=0.408;exitY=0.94;exitDx=0;exitDy=0;exitPerimeter=0;entryPerimeter=0;" edge="1" parent="WIyWlLk6GJQsqaUBKTNV-1" source="3fx-p6HcElgktByNlLMN-25" target="3fx-p6HcElgktByNlLMN-15">
          <mxGeometry width="50" height="50" relative="1" as="geometry">
            <mxPoint x="354.01" y="721" as="sourcePoint" />
            <mxPoint x="364" y="760" as="targetPoint" />
            <Array as="points" />
          </mxGeometry>
        </mxCell>
        <mxCell id="3fx-p6HcElgktByNlLMN-31" value="&lt;div style=&quot;text-align: center;&quot;&gt;Settings&lt;/div&gt;" style="text;whiteSpace=wrap;html=1;" vertex="1" parent="WIyWlLk6GJQsqaUBKTNV-1">
          <mxGeometry x="620" y="580" width="130" height="20" as="geometry" />
        </mxCell>
        <mxCell id="3fx-p6HcElgktByNlLMN-32" value="" style="endArrow=none;html=1;rounded=0;entryX=1;entryY=0.5;entryDx=0;entryDy=0;exitX=0;exitY=0.5;exitDx=0;exitDy=0;" edge="1" parent="WIyWlLk6GJQsqaUBKTNV-1" source="3fx-p6HcElgktByNlLMN-33" target="3fx-p6HcElgktByNlLMN-4">
          <mxGeometry width="50" height="50" relative="1" as="geometry">
            <mxPoint x="590" y="495" as="sourcePoint" />
            <mxPoint x="409" y="602" as="targetPoint" />
          </mxGeometry>
        </mxCell>
        <mxCell id="3fx-p6HcElgktByNlLMN-33" value="&lt;div style=&quot;text-align: center;&quot;&gt;Click Settings&lt;/div&gt;" style="text;whiteSpace=wrap;html=1;" vertex="1" parent="WIyWlLk6GJQsqaUBKTNV-1">
          <mxGeometry x="600" y="482.5" width="130" height="25" as="geometry" />
        </mxCell>
        <mxCell id="3fx-p6HcElgktByNlLMN-35" style="edgeStyle=orthogonalEdgeStyle;rounded=0;orthogonalLoop=1;jettySize=auto;html=1;exitX=0.25;exitY=1;exitDx=0;exitDy=0;entryX=0.092;entryY=0.025;entryDx=0;entryDy=0;entryPerimeter=0;" edge="1" parent="WIyWlLk6GJQsqaUBKTNV-1" source="3fx-p6HcElgktByNlLMN-33" target="3fx-p6HcElgktByNlLMN-31">
          <mxGeometry relative="1" as="geometry" />
        </mxCell>
        <mxCell id="3fx-p6HcElgktByNlLMN-36" value="&lt;div&gt;&amp;lt;View&amp;gt;&lt;/div&gt;Display password Strength and Suggestion for Improvement" style="rounded=1;whiteSpace=wrap;html=1;absoluteArcSize=1;arcSize=14;strokeWidth=2;" vertex="1" parent="WIyWlLk6GJQsqaUBKTNV-1">
          <mxGeometry x="550" y="870" width="160" height="190" as="geometry" />
        </mxCell>
        <mxCell id="3fx-p6HcElgktByNlLMN-37" value="&lt;div style=&quot;text-align: center;&quot;&gt;Password Strength Analysis&lt;/div&gt;" style="text;whiteSpace=wrap;html=1;" vertex="1" parent="WIyWlLk6GJQsqaUBKTNV-1">
          <mxGeometry x="560" y="830" width="130" height="25" as="geometry" />
        </mxCell>
        <mxCell id="3fx-p6HcElgktByNlLMN-39" value="" style="endArrow=none;html=1;rounded=0;entryX=0.947;entryY=0.997;entryDx=0;entryDy=0;entryPerimeter=0;" edge="1" parent="WIyWlLk6GJQsqaUBKTNV-1" target="3fx-p6HcElgktByNlLMN-4">
          <mxGeometry width="50" height="50" relative="1" as="geometry">
            <mxPoint x="499" y="790" as="sourcePoint" />
            <mxPoint x="480" y="620" as="targetPoint" />
          </mxGeometry>
        </mxCell>
        <mxCell id="3fx-p6HcElgktByNlLMN-41" value="&lt;div style=&quot;text-align: center;&quot;&gt;Click Password Strength Analysis&amp;nbsp;&lt;/div&gt;" style="text;whiteSpace=wrap;html=1;" vertex="1" parent="WIyWlLk6GJQsqaUBKTNV-1">
          <mxGeometry x="432" y="790" width="130" height="25" as="geometry" />
        </mxCell>
        <mxCell id="3fx-p6HcElgktByNlLMN-42" style="edgeStyle=orthogonalEdgeStyle;rounded=0;orthogonalLoop=1;jettySize=auto;html=1;entryX=0.25;entryY=0;entryDx=0;entryDy=0;" edge="1" parent="WIyWlLk6GJQsqaUBKTNV-1" target="3fx-p6HcElgktByNlLMN-37">
          <mxGeometry relative="1" as="geometry">
            <mxPoint x="550" y="810" as="sourcePoint" />
            <mxPoint x="580" y="888" as="targetPoint" />
            <Array as="points">
              <mxPoint x="554" y="810" />
              <mxPoint x="593" y="810" />
            </Array>
          </mxGeometry>
        </mxCell>
        <mxCell id="3fx-p6HcElgktByNlLMN-43" value="&amp;lt;View &amp;amp; Select&amp;gt;&lt;div&gt;List of Security Alerts&lt;/div&gt;" style="rounded=1;whiteSpace=wrap;html=1;absoluteArcSize=1;arcSize=14;strokeWidth=2;" vertex="1" parent="WIyWlLk6GJQsqaUBKTNV-1">
          <mxGeometry x="589" y="200" width="160" height="190" as="geometry" />
        </mxCell>
        <mxCell id="3fx-p6HcElgktByNlLMN-44" value="&lt;div style=&quot;text-align: center;&quot;&gt;Security Alerts&lt;/div&gt;" style="text;whiteSpace=wrap;html=1;" vertex="1" parent="WIyWlLk6GJQsqaUBKTNV-1">
          <mxGeometry x="630" y="180" width="100" height="20" as="geometry" />
        </mxCell>
        <mxCell id="3fx-p6HcElgktByNlLMN-45" value="" style="endArrow=none;html=1;rounded=0;entryX=1;entryY=0.5;entryDx=0;entryDy=0;exitX=0;exitY=0.5;exitDx=0;exitDy=0;" edge="1" parent="WIyWlLk6GJQsqaUBKTNV-1">
          <mxGeometry width="50" height="50" relative="1" as="geometry">
            <mxPoint x="600" y="470" as="sourcePoint" />
            <mxPoint x="509" y="470" as="targetPoint" />
          </mxGeometry>
        </mxCell>
        <mxCell id="3fx-p6HcElgktByNlLMN-46" value="&lt;div style=&quot;text-align: center;&quot;&gt;Click Security Alerts&lt;/div&gt;" style="text;whiteSpace=wrap;html=1;" vertex="1" parent="WIyWlLk6GJQsqaUBKTNV-1">
          <mxGeometry x="600" y="457.5" width="130" height="25" as="geometry" />
        </mxCell>
        <mxCell id="3fx-p6HcElgktByNlLMN-47" style="edgeStyle=orthogonalEdgeStyle;rounded=0;orthogonalLoop=1;jettySize=auto;html=1;entryX=0.325;entryY=0.995;entryDx=0;entryDy=0;entryPerimeter=0;exitX=0.315;exitY=-0.02;exitDx=0;exitDy=0;exitPerimeter=0;" edge="1" parent="WIyWlLk6GJQsqaUBKTNV-1" source="3fx-p6HcElgktByNlLMN-46" target="3fx-p6HcElgktByNlLMN-43">
          <mxGeometry relative="1" as="geometry">
            <mxPoint x="642" y="450" as="sourcePoint" />
            <mxPoint x="642" y="591" as="targetPoint" />
          </mxGeometry>
        </mxCell>
      </root>
    </mxGraphModel>
  </diagram>
</mxfile>
